<mxfile host="app.diagrams.net" agent="Mozilla/5.0 (Windows NT 10.0; Win64; x64; rv:142.0) Gecko/20100101 Firefox/142.0" version="28.2.0">
  <diagram name="Page-1" id="wHOfdho7OG8wOkAc94i6">
    <mxGraphModel dx="723" dy="397" grid="1" gridSize="10" guides="1" tooltips="1" connect="1" arrows="1" fold="1" page="1" pageScale="1" pageWidth="1100" pageHeight="850" math="0" shadow="0">
      <root>
        <mxCell id="0" />
        <mxCell id="1" parent="0" />
        <mxCell id="9ffduEdVhomI4skiuL9E-9" value="" style="endArrow=classic;html=1;rounded=0;entryX=0.5;entryY=0.083;entryDx=0;entryDy=0;entryPerimeter=0;fontSize=10;exitX=0.5;exitY=1;exitDx=0;exitDy=0;" parent="1" target="9ffduEdVhomI4skiuL9E-4" edge="1" source="9ffduEdVhomI4skiuL9E-6">
          <mxGeometry width="50" height="50" relative="1" as="geometry">
            <mxPoint x="520" y="180" as="sourcePoint" />
            <mxPoint x="570" y="130" as="targetPoint" />
          </mxGeometry>
        </mxCell>
        <mxCell id="9ffduEdVhomI4skiuL9E-10" value="&lt;div&gt;gb_update(gb_state_t *gb)&lt;/div&gt;&lt;div&gt;gb_pause(gb_state_t *gb)&lt;/div&gt;&lt;div&gt;...&lt;/div&gt;" style="text;html=1;align=center;verticalAlign=middle;whiteSpace=wrap;rounded=0;fontSize=10;" parent="1" vertex="1">
          <mxGeometry x="310" y="235" width="220" height="60" as="geometry" />
        </mxCell>
        <mxCell id="4nuDqXgeOVnS-LmgX9Fc-3" value="" style="endArrow=classic;html=1;rounded=0;exitX=1;exitY=0.5;exitDx=0;exitDy=0;fontSize=10;entryX=0.015;entryY=0.671;entryDx=0;entryDy=0;entryPerimeter=0;" edge="1" parent="1" source="9ffduEdVhomI4skiuL9E-1" target="4nuDqXgeOVnS-LmgX9Fc-2">
          <mxGeometry width="50" height="50" relative="1" as="geometry">
            <mxPoint x="800" y="320" as="sourcePoint" />
            <mxPoint x="850" y="265" as="targetPoint" />
          </mxGeometry>
        </mxCell>
        <mxCell id="4nuDqXgeOVnS-LmgX9Fc-5" value="load_rom(char *path)" style="text;html=1;align=center;verticalAlign=middle;whiteSpace=wrap;rounded=0;fontSize=10;" vertex="1" parent="1">
          <mxGeometry x="470" y="370" width="220" height="60" as="geometry" />
        </mxCell>
        <mxCell id="4nuDqXgeOVnS-LmgX9Fc-8" value="&lt;div&gt;ppu_update(float delta)&lt;/div&gt;&lt;div&gt;ppu_draw(float delta, SDLRenderer *r)&lt;/div&gt;" style="text;html=1;align=center;verticalAlign=middle;whiteSpace=wrap;rounded=0;fontSize=10;" vertex="1" parent="1">
          <mxGeometry x="110" y="150" width="220" height="60" as="geometry" />
        </mxCell>
        <mxCell id="4nuDqXgeOVnS-LmgX9Fc-9" value="" style="endArrow=classic;html=1;rounded=0;entryX=1.002;entryY=0.082;entryDx=0;entryDy=0;entryPerimeter=0;fontSize=10;exitX=1;exitY=1;exitDx=0;exitDy=0;" edge="1" parent="1" target="4nuDqXgeOVnS-LmgX9Fc-7">
          <mxGeometry width="50" height="50" relative="1" as="geometry">
            <mxPoint x="330" y="160" as="sourcePoint" />
            <mxPoint x="379" y="228" as="targetPoint" />
          </mxGeometry>
        </mxCell>
        <mxCell id="4nuDqXgeOVnS-LmgX9Fc-10" value="" style="endArrow=classic;html=1;rounded=0;entryX=0;entryY=0.5;entryDx=0;entryDy=0;exitX=1;exitY=1;exitDx=0;exitDy=0;" edge="1" parent="1" source="4nuDqXgeOVnS-LmgX9Fc-6" target="9ffduEdVhomI4skiuL9E-4">
          <mxGeometry width="50" height="50" relative="1" as="geometry">
            <mxPoint x="290" y="280" as="sourcePoint" />
            <mxPoint x="340" y="230" as="targetPoint" />
          </mxGeometry>
        </mxCell>
        <mxCell id="4nuDqXgeOVnS-LmgX9Fc-11" value="&lt;div&gt;ppu_write_mem(ppu_state_t *ppu, gb_state_t *gb)&lt;/div&gt;" style="text;html=1;align=center;verticalAlign=middle;whiteSpace=wrap;rounded=0;fontSize=10;" vertex="1" parent="1">
          <mxGeometry x="140" y="365" width="180" height="60" as="geometry" />
        </mxCell>
        <mxCell id="4nuDqXgeOVnS-LmgX9Fc-12" value="" style="group" vertex="1" connectable="0" parent="1">
          <mxGeometry x="340" y="370" width="180" height="120" as="geometry" />
        </mxCell>
        <mxCell id="9ffduEdVhomI4skiuL9E-1" value="" style="rounded=0;whiteSpace=wrap;html=1;fontSize=10;" parent="4nuDqXgeOVnS-LmgX9Fc-12" vertex="1">
          <mxGeometry y="10" width="180" height="90" as="geometry" />
        </mxCell>
        <mxCell id="9ffduEdVhomI4skiuL9E-4" value="&lt;h1 style=&quot;margin-top: 0px;&quot;&gt;&lt;font&gt;gb.c&lt;/font&gt;&lt;/h1&gt;&lt;p&gt;Handles emulation of the DMG CPU, including timing. Contains the array representing the GB&#39;s total address space.&lt;/p&gt;" style="text;html=1;whiteSpace=wrap;overflow=hidden;rounded=0;fontSize=10;" parent="4nuDqXgeOVnS-LmgX9Fc-12" vertex="1">
          <mxGeometry width="170" height="120" as="geometry" />
        </mxCell>
        <mxCell id="4nuDqXgeOVnS-LmgX9Fc-13" value="" style="group" vertex="1" connectable="0" parent="1">
          <mxGeometry x="330" y="80" width="190" height="120" as="geometry" />
        </mxCell>
        <mxCell id="9ffduEdVhomI4skiuL9E-6" value="" style="rounded=0;whiteSpace=wrap;html=1;fontSize=10;" parent="4nuDqXgeOVnS-LmgX9Fc-13" vertex="1">
          <mxGeometry y="10" width="190" height="70" as="geometry" />
        </mxCell>
        <mxCell id="9ffduEdVhomI4skiuL9E-7" value="&lt;h1 style=&quot;margin-top: 0px;&quot;&gt;&lt;font&gt;seagb.c&lt;/font&gt;&lt;/h1&gt;&lt;p&gt;handles all interfacing with SDL, creates SeaGB&#39;s GUI.&lt;/p&gt;" style="text;html=1;whiteSpace=wrap;overflow=hidden;rounded=0;fontSize=10;" parent="4nuDqXgeOVnS-LmgX9Fc-13" vertex="1">
          <mxGeometry width="180" height="70" as="geometry" />
        </mxCell>
        <mxCell id="4nuDqXgeOVnS-LmgX9Fc-15" value="" style="group" vertex="1" connectable="0" parent="1">
          <mxGeometry x="90" y="230" width="180" height="110" as="geometry" />
        </mxCell>
        <mxCell id="4nuDqXgeOVnS-LmgX9Fc-6" value="" style="rounded=0;whiteSpace=wrap;html=1;fontSize=10;" vertex="1" parent="4nuDqXgeOVnS-LmgX9Fc-15">
          <mxGeometry y="10" width="180" height="100" as="geometry" />
        </mxCell>
        <mxCell id="4nuDqXgeOVnS-LmgX9Fc-7" value="&lt;h1 style=&quot;margin-top: 0px;&quot;&gt;&lt;font&gt;ppu.c&lt;/font&gt;&lt;/h1&gt;&lt;p&gt;handles all dmg graphics. background tilemaps, tiles, and objects all have their own dedicated structs. they are serialized into the GB&#39;s memory through an update call.&lt;/p&gt;" style="text;html=1;whiteSpace=wrap;overflow=hidden;rounded=0;fontSize=10;" vertex="1" parent="4nuDqXgeOVnS-LmgX9Fc-15">
          <mxGeometry width="180" height="100" as="geometry" />
        </mxCell>
        <mxCell id="4nuDqXgeOVnS-LmgX9Fc-16" value="" style="group" vertex="1" connectable="0" parent="1">
          <mxGeometry x="640" y="370" width="180" height="90" as="geometry" />
        </mxCell>
        <mxCell id="4nuDqXgeOVnS-LmgX9Fc-1" value="" style="rounded=0;whiteSpace=wrap;html=1;fontSize=10;" vertex="1" parent="4nuDqXgeOVnS-LmgX9Fc-16">
          <mxGeometry y="10" width="180" height="80" as="geometry" />
        </mxCell>
        <mxCell id="4nuDqXgeOVnS-LmgX9Fc-2" value="&lt;h1 style=&quot;margin-top: 0px;&quot;&gt;&lt;font&gt;rom.c?&lt;/font&gt;&lt;/h1&gt;&lt;p&gt;&lt;font&gt;Loads and parses ROMs from the file system into a rom_context_t. (might be redundant)&lt;/font&gt;&lt;/p&gt;" style="text;html=1;whiteSpace=wrap;overflow=hidden;rounded=0;fontSize=10;" vertex="1" parent="4nuDqXgeOVnS-LmgX9Fc-16">
          <mxGeometry width="180" height="80" as="geometry" />
        </mxCell>
      </root>
    </mxGraphModel>
  </diagram>
</mxfile>
